<?xml version="1.0" encoding="UTF-8" standalone="no"?>
<!-- Created with Inkscape (http://www.inkscape.org/) -->

<svg
   width="400"
   height="500"
   viewBox="0 0 105.83333 132.29167"
   version="1.1"
   id="svg1"
   inkscape:version="1.3 (0e150ed, 2023-07-21)"
   sodipodi:docname="sprout2.svg"
   xml:space="preserve"
   xmlns:inkscape="http://www.inkscape.org/namespaces/inkscape"
   xmlns:sodipodi="http://sodipodi.sourceforge.net/DTD/sodipodi-0.dtd"
   xmlns="http://www.w3.org/2000/svg"
   xmlns:svg="http://www.w3.org/2000/svg"><sodipodi:namedview
     id="namedview1"
     pagecolor="#ffffff"
     bordercolor="#000000"
     borderopacity="0.25"
     inkscape:showpageshadow="2"
     inkscape:pageopacity="0.0"
     inkscape:pagecheckerboard="0"
     inkscape:deskcolor="#d1d1d1"
     inkscape:document-units="mm"
     showgrid="true"
     inkscape:zoom="2.0153513"
     inkscape:cx="201.20562"
     inkscape:cy="427.96509"
     inkscape:window-width="1352"
     inkscape:window-height="1282"
     inkscape:window-x="1215"
     inkscape:window-y="25"
     inkscape:window-maximized="0"
     inkscape:current-layer="layer1"
     showguides="false"><inkscape:grid
       id="grid1"
       units="mm"
       originx="0"
       originy="0"
       spacingx="0.99999997"
       spacingy="1"
       empcolor="#0099e5"
       empopacity="0.30196078"
       color="#0099e5"
       opacity="0.14901961"
       empspacing="5"
       dotted="false"
       gridanglex="30"
       gridanglez="30"
       visible="true" /></sodipodi:namedview><defs
     id="defs1"><inkscape:path-effect
       effect="fillet_chamfer"
       id="path-effect56"
       is_visible="true"
       lpeversion="1"
       nodesatellites_param="F,0,0,1,0,5.5268444,0,1 @ F,0,0,1,0,0,0,1 @ F,0,0,1,0,0,0,1 @ F,0,0,1,0,1.7558064,0,1"
       radius="0"
       unit="px"
       method="auto"
       mode="F"
       chamfer_steps="1"
       flexible="false"
       use_knot_distance="true"
       apply_no_radius="true"
       apply_with_radius="true"
       only_selected="false"
       hide_knots="false" /></defs><g
     inkscape:label="Layer 1"
     inkscape:groupmode="layer"
     id="layer1"><path
       id="path2"
       style="fill:#6e3e1e;fill-opacity:1;stroke:none;stroke-width:0;stroke-dasharray:none"
       inkscape:transform-center-x="-1.2546105"
       inkscape:transform-center-y="-1.1246612"
       d="M 52.386732,122.56265 A 47.361552,9.770447 0 0 0 5.0468976,132.26269 H 99.740768 a 47.361552,9.770447 0 0 0 -47.354036,-9.70004 z" /><path
       style="fill:#6f8a91;fill-opacity:1;stroke:none;stroke-width:0;stroke-dasharray:none"
       d="M 122.58429,35.747127 Z"
       id="path20" /><ellipse
       style="display:inline;fill:#502d16;fill-opacity:1;stroke:none;stroke-width:0;stroke-dasharray:none"
       id="path3"
       ry="1.1615647"
       rx="2.6279037"
       cy="127.54979"
       cx="52.533527" /><ellipse
       style="display:none;fill:#eaaf88;fill-opacity:1;stroke:none;stroke-width:0;stroke-dasharray:none"
       id="path11"
       cx="-126.83003"
       cy="71.290718"
       rx="6.8472619"
       ry="11.407577"
       transform="rotate(-79.916469)" /><path
       id="path50"
       d="m 39.316136,112.03826 c -2.00986,-1.93158 -6.156851,-4.43427 -8.506315,-9.65897 -1.426125,-3.171377 12.103867,-4.114407 17.09076,-2.919064 4.29728,1.030044 7.264813,4.411294 7.335162,8.004674 0.01888,0.96444 -0.369449,2.52073 -0.840346,3.36778 -0.974993,1.75383 -2.712859,3.04482 -4.802101,3.669 -2.902606,0.86718 -8.110506,-0.38114 -10.27716,-2.46342 z"
       style="fill:#8dd35f;stroke-width:0.178984"
       sodipodi:nodetypes="sssssss" /><path
       style="display:inline;fill:#8dd35f;fill-opacity:1;stroke:none;stroke-width:0.2;stroke-dasharray:none;stroke-opacity:1"
       d="m 56.583393,108.0467 c 1.575409,2.10055 1.969261,6.43292 1.969261,6.43292 0,0 -0.91899,3.54466 -3.019532,5.51392 -2.100543,1.96926 -1.706693,8.00832 -1.706693,8.00832 0,0 -0.787704,0.39386 -2.100543,0.13129 -1.312838,-0.26257 -0.39385,-7.3519 0.525138,-8.13961 0.918987,-0.7877 4.594937,-4.06979 4.201086,-5.51392 -0.393853,-1.44413 1.050271,-1.70669 -1.575409,-5.90778 -2.625677,-4.20109 1.706692,-0.52514 1.706692,-0.52514 z"
       id="path54"
       sodipodi:nodetypes="ccscssssc" /><ellipse
       style="display:none;fill:#eaaf88;fill-opacity:1;stroke:#d89b72;stroke-width:0.2;stroke-dasharray:none;stroke-opacity:1"
       id="path11-6"
       cx="-72.734406"
       cy="122.09782"
       rx="6.8472619"
       ry="11.407577"
       transform="rotate(-51.307386)" /><path
       id="path56"
       d="m 63.263904,97.790553 c 2.063692,-0.44524 5.381699,-1.95312 9.674949,-1.2947 2.605995,0.39966 -2.444847,8.938657 -5.284679,11.472847 -2.447119,2.18376 -5.829699,2.63082 -8.137204,1.24538 -0.619319,-0.37185 -1.443851,-1.2246 -1.784269,-1.84534 -0.704833,-1.28525 -0.797752,-2.84691 -0.321216,-4.35563 0.662041,-2.09609 3.627726,-4.742587 5.852419,-5.222557 z"
       style="fill:#8dd35f;stroke-width:0.132552"
       sodipodi:nodetypes="sssssss" /><path
       style="fill:#8dd35f;fill-opacity:1;stroke:none;stroke-width:0.2;stroke-dasharray:none;stroke-opacity:1"
       d="m 58.027518,106.20873 c -0.580705,0.26115 -0.742193,0.50822 -1.050272,0.91899 -0.365114,0.48682 -0.722119,0.9519 -1.050271,1.44413 -0.06531,0.0979 -0.488387,0.69317 -0.393854,0.7877 0.123516,0.12352 0.780675,-0.007 0.918988,0.13128 0.01283,0.0128 0.08221,0.44293 0.26257,0.26257 0.03094,-0.0309 -0.01958,-0.0921 0,-0.13128 0.143492,-0.28698 0.699596,-0.74348 0.918988,-0.91899 0.22365,-0.17892 0.599167,-0.20531 0.787704,-0.39385 0.06564,-0.0656 0.06564,-0.19693 0.131284,-0.26257 0.08339,-0.0834 0.656418,-0.31004 0.656418,-0.52513 0,-0.0438 -0.100338,0.0309 -0.131284,0 -0.06564,-0.0657 -0.06564,-0.19693 -0.131283,-0.26257 -0.04376,-0.0438 -0.350092,-0.0875 -0.393851,-0.13129 -0.03095,-0.0309 0.01958,-0.0921 0,-0.13128 -0.141126,-0.28225 -0.362778,-0.51711 -0.525137,-0.78771 z"
       id="path57" /></g></svg>
